# xmcd
#
# Track frame offsets:
#	150
#	17983
#	35712
#	55050
#	65780
#	81154
#	95128
#	113989
#	126091
#	142263
#	161508
#
# Disc length: 2359 seconds
#
# Revision: 1
# Processed by: cddbd v1.5.2PL0 Copyright (c) Steve Scherf et al.
# Submitted via: audiograbber 1.83.01
#
DISCID=a409350b
DTITLE=T. Jae Christian - Put Me Down Easy Lord
DYEAR=2007
DGENRE=Country
TTITLE0=I don't care where you dig that hole
TTITLE1=This is where Jesus would go
TTITLE2=Fit for a king
TTITLE3=Jesus on your mind
TTITLE4=When I pray
TTITLE5=Put me down easy Lord
TTITLE6=Another angel in heaven
TTITLE7=Hearts that cheat no more
TTITLE8=Phone in heaven
TTITLE9=I've got my name in the big book
TTITLE10=Country, not the neon kind
EXTD=
EXTT0=
EXTT1=
EXTT2=
EXTT3=
EXTT4=
EXTT5=
EXTT6=
EXTT7=
EXTT8=
EXTT9=
EXTT10=
PLAYORDER=
